# xmcd CD database file
#
# Track frame offsets:
#	150
#	11924
#	23484
#	34922
#	46773
#	61125
#	73498
#	89693
#	100659
#	112077
#
# Disc length: 1645 seconds
#
# Revision: 0
# Processed by: cddbd v1.5.2PL0 Copyright (c) Steve Scherf et al.
# Submitted via: CDex 1.51
#
DISCID=84066b0a
DTITLE=Brenda Lee - Country
DYEAR=2014
DGENRE=Country
TTITLE0=Sweet Nothin's
TTITLE1=That's All You Gotta Go
TTITLE2=Dum Dum
TTITLE3=I'm Sorry
TTITLE4=I Want to be Wanted
TTITLE5=Emotions
TTITLE6=You Can Depend on Me
TTITLE7=Fool #1
TTITLE8=Break It to Me Gently
TTITLE9=Losing You
EXTD=YEAR: 2014
EXTT0=
EXTT1=
EXTT2=
EXTT3=
EXTT4=
EXTT5=
EXTT6=
EXTT7=
EXTT8=
EXTT9=
PLAYORDER=
